<?xml version="1.0" encoding="UTF-8"?>
<!-- Generator: visioncortex VTracer 0.6.4 -->
<svg version="1.1" xmlns="http://www.w3.org/2000/svg" width="209" height="256">
<path d="M 62.282 -0.641 L 86.282 -0.641 L 0.282 85.359 L 0.282 61.359 L 62.282 -0.641 Z" fill="#000000" style="stroke-width: 1;"></path>
<path d="M 106.282 -0.641 L 130.282 -0.641 L 0.282 128.359 L 0.282 104.359 L 106.282 -0.641 Z" fill="#000000" style="stroke-width: 1;"></path>
<path d="M 149.282 -0.641 L 173.282 -0.641 L 98.282 75.359 L 186.282 166.359 L 175.282 178.359 L 85.282 89.359 L 75.282 98.359 L 163.282 188.359 L 153.282 200.359 L 62.236 112.014 L 60.282 113.359 L 52.282 121.359 L 140.282 213.359 L 130.282 223.359 L 40.834 133.462 L 36.282 137.359 L 2.282 171.359 L 0.282 171.359 L 0.282 148.359 L 149.282 -0.641 Z" fill="#000000" style="stroke-width: 1;"></path>
</svg>
